<?xml version="1.0" encoding="utf-8"?>
<!-- Generator: Adobe Illustrator 16.0.0, SVG Export Plug-In . SVG Version: 6.00 Build 0)  -->
<!DOCTYPE svg PUBLIC "-//W3C//DTD SVG 1.1//EN" "http://www.w3.org/Graphics/SVG/1.1/DTD/svg11.dtd">
<svg version="1.1" id="Layer_1" xmlns="http://www.w3.org/2000/svg" xmlns:xlink="http://www.w3.org/1999/xlink" x="0px" y="0px"
	 width="205.189px" height="153.943px" viewBox="0 0 205.189 153.943" enable-background="new 0 0 205.189 153.943"
	 xml:space="preserve">
<g>
	<g>
		<path d="M131.905,62.707c14.403,8.15,27.503-11.637,22.956-24.518c-3.147-8.92-14.784-12.124-23.012-13.883
			c-11.653-2.492-23.839-1.456-35.427,0.841c-20.637,4.091-42.579,13.166-58.33,27.391C23.666,65.567,11.43,83.308,6.561,102.261
			c-4.581,17.829,1.198,36.86,18.935,44.49c19.671,8.463,43.126,8.976,63.672,4.05c13.778-3.302,27.037-8.667,39.856-14.627
			c10.632-4.943,20.88-10.636,30.069-17.959c8.892-7.086,15.854-16.076,20.201-26.58c4.205-10.159,7.72-25.339,2.871-35.827
			c-2.718-5.88-7.787-10.161-10.839-15.855c-1.524-2.842-5.841-0.317-4.318,2.523c2.648,4.939,6.678,8.773,9.644,13.483
			c4.046,6.426,2.726,15.729,1.279,22.729c-2.619,12.677-8.751,23.41-18.112,32.294c-8.846,8.396-19.826,14.37-30.725,19.645
			c-13.229,6.404-26.993,11.755-41.256,15.353c-11.491,2.899-22.566,3.485-34.304,2.287c-10.598-1.082-22.181-3.204-31.391-8.83
			c-19.304-11.792-11.818-38.669-3.242-54.472c6.802-12.533,16.306-24.008,27.45-32.914C59.51,41.534,77.092,35.02,93.239,30.981
			c16.925-4.233,37.83-5.616,53.22,4.167c10.888,6.921-0.205,29.933-12.03,23.241C131.619,56.799,129.1,61.119,131.905,62.707
			L131.905,62.707z"/>
	</g>
</g>
<g>
	<g>
		<path d="M28.066,86.78c-0.18,0.196-0.357,0.398-0.489,0.63c-0.523,0.922-0.461,2.298,0.391,3.029
			c2.226,1.911,5.281-0.851,7.238-2.008c1.57-0.928,3.158-1.826,4.778-2.664c0.675-0.35,1.362-0.69,2.068-0.975
			c0.301-0.122,1.844-0.389,1.117-0.501c3.153,0.487,4.508-4.331,1.329-4.821c-2.988-0.461-5.956,1.38-8.488,2.748
			c-1.558,0.842-3.082,1.748-4.603,2.654c-0.577,0.344-1.152,0.689-1.73,1.03c-0.36,0.212-1.568,0.609-0.587,0.375
			c0.811,0.214,1.622,0.429,2.432,0.643c-0.006-0.005-0.012-0.01-0.018-0.015c0.13,1.01,0.261,2.02,0.391,3.029
			c-0.098,0.127-0.196,0.254-0.293,0.381C33.772,87.942,30.246,84.396,28.066,86.78L28.066,86.78z"/>
	</g>
</g>
<g>
	<g>
		<path d="M84.244,70.545c1.905-4.606,6.741-7.2,11.589-6.831c3.218,0.245,3.194-4.757,0-5c-7.252-0.552-13.687,3.914-16.41,10.502
			C78.191,72.196,83.03,73.481,84.244,70.545L84.244,70.545z"/>
	</g>
</g>
<g>
	<g>
		<path d="M54.732,87.447c-2.968,3.467-5.671,9.435-1.583,13.202c5.065,4.668,10.793-2.969,12.843-6.839c-1.439,0-2.878,0-4.317,0
			c3.577,5.285,9.986,9.233,16.087,5.313c5.962-3.83,3.858-11.233-0.828-15.01c-2.485-2.003-6.046,1.511-3.535,3.535
			c2.327,1.876,4.486,4.632,1.813,7.172c-3.152,2.996-7.532-1.041-9.22-3.534c-0.998-1.474-3.385-1.76-4.317,0
			c-0.542,1.024-3.263,6.497-5.117,5.686c-2.008-0.879,1.082-5.256,1.71-5.99C60.352,88.547,56.833,84.993,54.732,87.447
			L54.732,87.447z"/>
	</g>
</g>
<g>
	<g>
		<path d="M35.675,109.953c-1.095,2.478-2.481,4.87-4.14,7.015c-1.302,1.682-3.881,4.97-6.37,4.503
			c-3.151-0.592-4.496,4.227-1.329,4.821c7.724,1.45,13.508-7.82,16.157-13.815C41.282,109.555,36.975,107.008,35.675,109.953
			L35.675,109.953z"/>
	</g>
</g>
<g>
	<g>
		<path d="M41.423,117.216c-1.137,5.101-2.226,10.719-6.851,13.839c-2.657,1.792-0.158,6.126,2.523,4.317
			c5.866-3.957,7.682-10.247,9.149-16.828C46.944,115.404,42.124,114.07,41.423,117.216L41.423,117.216z"/>
	</g>
</g>
<g>
	<g>
		<path d="M105.905,82.04c8.267,5.295,19.255,4.992,27.856,0.667c2.881-1.449,0.349-5.762-2.523-4.317
			c-7.045,3.542-16.08,3.643-22.81-0.667C105.705,75.978,103.2,80.307,105.905,82.04L105.905,82.04z"/>
	</g>
</g>
<g>
	<g>
		<path d="M109.238,96.04c9.048,4.181,19.336,9.39,26.754-0.23c1.969-2.554-2.379-5.039-4.318-2.523
			c-5.171,6.708-14.034,1.152-19.912-1.564C108.855,90.379,106.313,94.688,109.238,96.04L109.238,96.04z"/>
	</g>
</g>
<g>
	<g>
		<path d="M14.498,80.804C9.411,78.976,8.549,67.031,7.577,62.55c-0.804,1.055-1.607,2.11-2.411,3.165
			c7.795-0.069,16.558-1.652,24.002,1.244c3.009,1.171,4.3-3.666,1.329-4.821c-7.901-3.074-17.075-1.496-25.332-1.423
			c-1.691,0.015-2.755,1.578-2.411,3.165C4.27,70.857,5.26,82.784,13.169,85.625C16.211,86.718,17.509,81.885,14.498,80.804
			L14.498,80.804z"/>
	</g>
</g>
<g>
	<g>
		<path d="M106.244,25.212c2.369-10.958,14.138-16.425,23.588-20.254c-1.025-0.582-2.051-1.164-3.076-1.746
			c1.114,3.348,6.745,16.997,2.482,19.177c-2.871,1.469-0.341,5.782,2.523,4.317c7.97-4.076,1.795-18.876-0.184-24.823
			c-0.392-1.175-1.764-2.278-3.076-1.746c-11.079,4.49-24.305,10.912-27.08,23.746C100.742,27.027,105.562,28.363,106.244,25.212
			L106.244,25.212z"/>
	</g>
</g>
<g>
	<g>
		<path d="M131.833,57.381c-3.879-0.189-7.174-4.237-6.329-8.069c0.637-2.886,4.103-4.59,6.808-3.91
			c1.889,0.475,3.474,1.986,4.398,3.649c0.153,0.276,0.205,0.503,0.284,0.835c0.019,0.081-0.101-0.331,0.295-0.767
			c0.444-0.491,0.945-0.261,0.339-0.372c-0.621-0.112-1.218-0.37-1.796-0.61c-2.979-1.234-4.264,3.605-1.33,4.821
			c3.765,1.56,8.084,0.394,7.313-4.402c-0.633-3.937-5.01-7.18-8.605-8.084c-5.612-1.411-11.476,2.744-12.684,8.22
			c-1.508,6.834,4.724,13.369,11.307,13.689C135.058,62.538,135.042,57.537,131.833,57.381L131.833,57.381z"/>
	</g>
</g>
<g>
	<g>
		<path d="M176.571,22.389c-8.292,5.041-11.507,15.669-6.229,24.087c1.309-1.01,2.617-2.02,3.926-3.029
			c-9.987-12.06,6.086-27.488,18.936-21.785c8.571,3.804,10.089,18.454-2.038,16.476c0.611,0.804,1.224,1.607,1.835,2.411
			c0-1.333,0-2.667,0-4c-1.667,0-3.333,0-5,0c0.209,4.604,2.856,8.447,7.893,7.031c4.993-1.404,7.923-7.299,7.453-12.143
			c-1.273-13.126-22.657-14.577-31.44-9.046c-2.453,1.544-0.837,5.15,1.927,4.569c2.737-0.575,5.396-0.933,8-2
			c-0.643-1.523-1.285-3.046-1.927-4.569c-1.565,0.848-3.078,1.742-4.737,2.415c-2.901,1.177-1.835,5.776,1.33,4.821
			c5.545-1.672,12.521-4.429,18.134-1.723c7.749,3.737,0.996,14.528-2.64,8.717c-1.467-2.344-5.462-0.852-4.57,1.926
			c1.579,4.917,3.308,5.842,8.411,6.502c-0.222-1.637-0.443-3.274-0.665-4.911c-1.685,0.985-3.104,0.677-4.257-0.925
			c0.992-3.078-3.836-4.385-4.822-1.329c-2.133,6.612,5.59,8.473,10.409,7.075c2.906-0.843,1.993-4.567-0.665-4.911
			c-2.775-0.359-2.788-0.336-3.589-2.832c-1.523,0.642-3.047,1.284-4.57,1.926c5.451,8.713,16.614,2.566,15.604-6.659
			c-1.567-14.302-19.126-10.389-28.109-7.68c0.443,1.607,0.887,3.214,1.33,4.821c2.065-0.838,3.972-1.857,5.931-2.918
			c2.449-1.327,0.726-5.656-1.927-4.569c-2.604,1.067-5.262,1.425-8,2c0.643,1.523,1.285,3.046,1.927,4.569
			c5.419-3.412,15.421-2.775,20.829,0.302c3.215,1.83,3.839,5.986,2.24,9c-1.252,2.359-4.316,4.535-4.498,0.54
			c-0.146-3.205-5-3.239-5,0c0,1.333,0,2.667,0,4c0,1.021,0.754,2.234,1.835,2.411c6.746,1.101,13.784-0.796,15.144-8.37
			c1.252-6.979-3.217-14.064-9.252-17.244c-18.015-9.493-38.191,13.703-24.994,29.638c1.829,2.209,5.415-0.654,3.926-3.029
			c-3.823-6.101-1.604-13.574,4.437-17.246C181.845,25.035,179.334,20.709,176.571,22.389L176.571,22.389z"/>
	</g>
</g>
<g>
	<g>
		<path d="M108.571,12.389c-4.789,2.419-5.137,8.109-4.482,12.823c0.403,2.899,4.812,2.026,4.911-0.665
			c0.185-4.999,3.284-8.687,7.429-11.175c-1.14-1.14-2.28-2.28-3.421-3.42c-2.15,4.864-4.847,9.43-6.252,14.597
			c1.638,0.222,3.274,0.443,4.911,0.665c0.151-5.603,2.503-11.461,7.428-14.508c2.735-1.692,0.227-6.019-2.523-4.317
			c-6.454,3.992-9.704,11.426-9.904,18.825c-0.077,2.849,4.176,3.369,4.911,0.665c1.291-4.75,3.77-8.931,5.748-13.403
			c0.948-2.145-1.083-4.824-3.421-3.42c-5.7,3.421-9.654,8.703-9.905,15.492c1.637-0.222,3.273-0.443,4.911-0.665
			c-0.35-2.51-0.389-5.877,2.184-7.177C113.974,15.252,111.441,10.939,108.571,12.389L108.571,12.389z"/>
	</g>
</g>
<g>
	<g>
		<path d="M4.572,66.04c2.597,1.239,5.167,1.572,8.027,1.502c2.61-0.064,7.878-1.564,9.743,0.935
			c0.941-1.224,1.882-2.448,2.823-3.672c-1.907-0.644-3.672-1.369-5.403-2.415c-0.841,1.439-1.682,2.878-2.523,4.317
			c2.245,1.082,4.54,2.025,6.667,3.333c0.841-1.439,1.682-2.878,2.523-4.317c-2.098-1.268-4.279-2.136-6.597-2.918
			c-3.063-1.035-4.367,3.795-1.329,4.821c1.907,0.644,3.672,1.369,5.403,2.415c2.769,1.673,5.263-2.632,2.523-4.317
			c-2.126-1.308-4.422-2.251-6.667-3.333c-2.875-1.385-5.314,2.63-2.523,4.317c2.098,1.268,4.279,2.136,6.597,2.918
			c1.966,0.664,4.143-1.905,2.823-3.672c-5.092-6.823-13.082-1.138-19.563-4.23C4.201,60.341,1.663,64.651,4.572,66.04L4.572,66.04z
			"/>
	</g>
</g>
<g>
	<g>
		<path d="M109.422,19.212c0.341,1.169,0.465,2.3,0.984,3.417c0.607,1.307,2.154,1.946,3.429,2.33
			c1.85,0.557,3.558-1.272,3.076-3.075c-0.636-2.38-0.023-4.92-0.667-7.333c-1.607,0.443-3.215,0.886-4.822,1.329
			c1.228,2.976,2.796,5.735,4.252,8.597c1.31-1.01,2.618-2.02,3.927-3.029c-2.045-2.635-3.201-5.558-3.268-8.899
			c-0.063-3.22-5.063-3.226-5,0c0.095,4.765,1.843,8.712,4.732,12.434c1.824,2.352,5.144-0.637,3.927-3.029
			c-1.256-2.466-2.691-4.839-3.748-7.403c-1.193-2.893-5.678-1.876-4.822,1.329c0.636,2.38,0.023,4.92,0.667,7.333
			c1.025-1.025,2.051-2.05,3.076-3.075c-0.657-0.198-0.387,0.166-0.526-0.476c-0.13-0.598-0.223-1.188-0.395-1.778
			C113.344,14.794,108.519,16.11,109.422,19.212L109.422,19.212z"/>
	</g>
</g>
<g>
	<g>
		<path d="M128.571,62.04c7.565,4.655,18.137,6.885,23.938-1.694c5.456-8.066,4.153-18.973-0.518-27.06
			c-1.612-2.791-5.934-0.273-4.318,2.523c3.388,5.863,4.708,13.311,1.891,19.686c-3.635,8.227-12.28,6.036-18.47,2.227
			C128.341,56.027,125.831,60.354,128.571,62.04L128.571,62.04z"/>
	</g>
</g>
<g>
	<g>
		<path d="M3.333,107.214c-0.06,5.25-0.42,10.321,1.422,15.331c0.938,2.549,4.942,2.3,4.911-0.665
			c-0.078-7.26-1.376-15.224,1.659-22.071c-1.553-0.42-3.106-0.841-4.659-1.262c0.781,6.372-0.514,12.469-1.242,18.773
			c-0.796,6.882,0.799,13.205,4.25,19.155c1.439-0.841,2.878-1.682,4.317-2.523C10.118,128.03,6.685,121.834,7,114.548
			c-1.667,0-3.333,0-5,0c1.604,12.823,5.931,24.446,17.905,30.825c0.841-1.439,1.682-2.878,2.523-4.317
			C13.302,137.126,7.286,129.294,7,119.214c-0.091-3.218-4.963-3.229-5,0c-0.173,15.09,15.166,26.332,28.502,29.744
			c0-1.607,0-3.214,0-4.821c-10.04,1.412-19.651-7.386-22.925-16.254c-1.523,0.642-3.046,1.284-4.569,1.926
			c8.007,11.815,21.191,18.641,34.828,21.815c0.222-1.637,0.443-3.274,0.665-4.911c-4.411-0.078-8.887-0.724-12.738-2.992
			c-0.42,1.553-0.841,3.106-1.262,4.659c6.895,0.817,13.261,3.75,20.002,5.244c0.443-1.607,0.886-3.214,1.329-4.821
			c-5.624-0.771-11.133-2.092-16.667-3.333c-0.222,1.637-0.443,3.274-0.665,4.911c6.54,0.169,12.869,1.836,19.333,2.667
			c0-1.667,0-3.333,0-5c-2.014,0.14-3.985,0.527-6,0.667c-3.183,0.221-3.255,5,0,5c3.111,0,6.222,0,9.333,0c3.224,0,3.224-5,0-5
			c-3.111,0-6.222,0-9.333,0c0,1.667,0,3.333,0,5c2.014-0.14,3.985-0.527,6-0.667c3.289-0.229,3.141-4.596,0-5
			c-6.48-0.833-12.773-2.497-19.333-2.667c-2.804-0.073-3.434,4.29-0.665,4.911c5.533,1.241,11.042,2.563,16.667,3.333
			c3.091,0.423,4.556-4.106,1.329-4.821c-7.208-1.598-13.952-4.549-21.331-5.423c-2.582-0.306-3.254,3.485-1.262,4.659
			c4.602,2.71,9.98,3.581,15.262,3.675c2.805,0.05,3.432-4.267,0.665-4.911c-12.302-2.864-24.575-8.799-31.839-19.518
			c-1.503-2.218-5.604-0.877-4.569,1.926c4.326,11.72,16.103,21.57,29.075,19.746c2.535-0.356,2.243-4.248,0-4.821
			C20.696,141.288,6.853,132.005,7,119.214c-1.667,0-3.333,0-5,0c0.332,11.706,7.169,21.536,17.905,26.159
			c2.878,1.239,5.436-2.766,2.523-4.317C12.1,135.553,8.383,125.609,7,114.548c-0.391-3.125-4.857-3.304-5,0
			c-0.352,8.151,3.323,15.276,7.675,21.928c1.753,2.681,5.947,0.287,4.317-2.523c-3.505-6.044-4.234-11.899-3.312-18.725
			c0.759-5.614,1.682-10.997,0.986-16.68c-0.262-2.135-3.523-3.823-4.659-1.262c-3.482,7.856-2.431,16.238-2.341,24.595
			c1.637-0.222,3.274-0.443,4.911-0.665c-1.687-4.586-1.299-9.208-1.244-14.002C8.371,103.989,3.371,103.992,3.333,107.214
			L3.333,107.214z"/>
	</g>
</g>
<g>
	<g>
		<path d="M105.833,25.714c3.225,0,3.225-5,0-5S102.608,25.714,105.833,25.714L105.833,25.714z"/>
	</g>
</g>
<g>
	<g>
		<path d="M107.167,24.381c3.225,0,3.225-5,0-5S103.942,24.381,107.167,24.381L107.167,24.381z"/>
	</g>
</g>
<g>
	<g>
		<path d="M111.601,24.315c1.287-1.444,1.398-3.251,1.399-5.101c0.001-1.363-1.138-2.5-2.5-2.5c-1.363,0-2.499,1.137-2.5,2.5
			c0,0.535-0.005,1.067-0.047,1.601c0.048-0.596-0.017,0.024-0.045,0.143c-0.088,0.271-0.067,0.243,0.061-0.083
			c-0.142,0.234-0.109,0.203,0.097-0.094c-0.906,1.016-1.005,2.531,0,3.535C108.987,25.237,110.693,25.333,111.601,24.315
			L111.601,24.315z"/>
	</g>
</g>
<g>
	<g>
		<path d="M11.423,84.55c-2.536,8.706-5.575,17.259-8,26c1.637,0.222,3.274,0.443,4.911,0.665c-0.814-9.437,6.909-16.661,7.333-26
			c0.128-2.825-4.264-3.402-4.911-0.665c-2.833,11.999-8.575,22.991-10.089,35.331c1.667,0,3.333,0,5,0
			c-0.436-5.521,0.626-10.418,2.992-15.405c-1.523-0.642-3.046-1.284-4.569-1.926c-1.409,8.889-3.25,17.707-1.333,26.663
			c0.592,2.768,5.02,2.14,4.911-0.665c-0.14-3.6-1.124-7.085-1.333-10.667c-0.187-3.194-5-3.247-5,0c0,2.222,0,4.445,0,6.667
			c1.637-0.222,3.274-0.443,4.911-0.665C5.532,121.71,5,119.702,5,117.381c0-3.224-5-3.224-5,0c0,5.539,0.96,9.88,4.341,14.429
			c1.9,2.556,6.244,0.067,4.317-2.523C5.812,125.458,5,122.088,5,117.381c0-3.224-5-3.224-5,0c0,2.725,0.578,5.253,1.423,7.832
			c0.865,2.64,4.911,2.233,4.911-0.665c0-2.222,0-4.445,0-6.667c-1.667,0-3.333,0-5,0c0.209,3.585,1.193,7.07,1.333,10.667
			c1.637-0.222,3.274-0.443,4.911-0.665c-1.717-8.021,0.073-16.049,1.333-24.004c0.408-2.576-3.257-4.693-4.569-1.926
			c-2.742,5.781-4.182,11.508-3.675,17.928c0.258,3.271,4.612,3.16,5,0c1.452-11.833,7.191-22.483,9.911-34.002
			c-1.637-0.222-3.274-0.443-4.911-0.665c-0.424,9.353-8.175,16.246-7.333,26c0.235,2.72,4.12,3.515,4.911,0.665
			c2.425-8.741,5.464-17.293,8-26C17.148,82.776,12.323,81.46,11.423,84.55L11.423,84.55z"/>
	</g>
</g>
<g>
	<g>
		<path d="M12.089,82.55c-2.54,6.62-6.201,12.731-8.648,19.394c-2.467,6.715-2.5,13.739-0.686,20.602
			c0.823,3.115,5.646,1.792,4.821-1.329c-3.73-14.109,4.517-24.785,9.333-37.337C18.068,80.864,13.232,79.572,12.089,82.55
			L12.089,82.55z"/>
	</g>
</g>
<g>
	<g>
		<path d="M180.089,63.879c5.618,17.413-3.926,30.031-16.023,41.568c-2.338,2.229,1.203,5.759,3.535,3.535
			c6.322-6.029,12.429-12.418,16.262-20.365c4.01-8.314,3.837-17.423,1.049-26.067C183.925,59.494,179.097,60.801,180.089,63.879
			L180.089,63.879z"/>
	</g>
</g>
<g>
	<g>
		<path d="M160.498,115.625c18.8-5.554,28.47-27.338,25.746-45.742c-0.472-3.18-5.289-1.824-4.822,1.329
			c2.322,15.681-6.295,34.877-22.254,39.591C156.083,111.715,157.397,116.541,160.498,115.625L160.498,115.625z"/>
	</g>
</g>
<g>
	<g>
		<path d="M147.905,34.04c10.476,7.597,9.876,21.969-2.737,26.764c-2.982,1.134-1.689,5.969,1.33,4.821
			c16.802-6.388,18.032-25.676,3.931-35.903C147.813,27.826,145.322,32.167,147.905,34.04L147.905,34.04z"/>
	</g>
</g>
<g>
	<g>
		<path d="M162.756,106.55c-1.721,4.689-6.612,8.231-10.851,10.506c1.224,0.941,2.448,1.882,3.673,2.823
			c1.93-6.962,11.549-10.251,16.022-15.563c-1.309-1.01-2.617-2.02-3.927-3.029c-5.691,8.22-13.545,14.858-21.769,20.436
			c1.224,0.941,2.448,1.882,3.673,2.823c1.531-3.713,4.771-6.003,8.184-7.839c-1.01-1.309-2.02-2.618-3.029-3.926
			c-3.711,4.288-7.961,8.013-12.827,10.942c1.01,1.309,2.02,2.618,3.029,3.926c2.223-2.222,4.444-4.444,6.666-6.667
			c2.289-2.289-1.18-5.725-3.535-3.535c-4.557,4.237-10.726,6.409-14.666,11.333c-1.993,2.491,1.521,6.053,3.535,3.535
			c3.894-4.865,10.129-7.115,14.666-11.333c-1.179-1.178-2.356-2.357-3.535-3.535c-2.223,2.222-4.444,4.444-6.666,6.667
			c-2.004,2.004,0.575,5.403,3.029,3.926c5.212-3.137,9.86-7.126,13.839-11.724c1.843-2.128-0.455-5.311-3.029-3.926
			c-4.705,2.531-8.423,5.834-10.482,10.827c-0.838,2.033,1.96,3.985,3.673,2.823c8.973-6.086,17.357-13.269,23.563-22.23
			c1.612-2.329-2.101-5.198-3.927-3.029c-5.241,6.223-14.977,9.354-17.31,17.77c-0.603,2.176,1.77,3.845,3.673,2.823
			c5.512-2.958,10.946-7.491,13.149-13.494C168.691,104.845,163.857,103.549,162.756,106.55L162.756,106.55z"/>
	</g>
</g>
<g>
	<g>
		<path d="M138.502,129.625c7.745,1.643,15.701-3.958,21.538-8.333c6.758-5.064,14.344-11.645,17.952-19.482
			c1.338-2.907-2.971-5.45-4.318-2.523c-2.896,6.292-8.588,11.375-13.776,15.774c-4.699,3.984-13.297,11.18-20.065,9.744
			C136.687,124.136,135.349,128.956,138.502,129.625L138.502,129.625z"/>
	</g>
</g>
<g>
	<g>
		<path d="M132.429,134.04c3.94-1.914,8.06-3.419,12-5.333c-0.841-1.439-1.683-2.878-2.523-4.317c-2.494,1.249-4.979,2.499-7.334,4
			c-2.469,1.574-0.829,5.089,1.927,4.569c4.707-0.888,9.26-2.976,12.437-6.643c2.101-2.424-1.42-5.977-3.535-3.535
			c-2.671,3.083-6.287,4.613-10.231,5.357c0.643,1.523,1.285,3.046,1.927,4.569c2.354-1.501,4.84-2.751,7.334-4
			c2.892-1.448,0.357-5.717-2.523-4.317c-3.94,1.914-8.06,3.419-12,5.333C127.005,131.131,129.542,135.442,132.429,134.04
			L132.429,134.04z"/>
	</g>
</g>
<g>
	<g>
		<path d="M160.429,114.707c7.096-5.166,12.244-13.211,16.55-20.709c4.021-7.002,8.479-15.795,7.266-24.114
			c-0.465-3.181-5.282-1.823-4.822,1.329c1.047,7.164-4.016,15.482-7.405,21.384c-3.627,6.317-8.126,13.436-14.111,17.793
			C155.326,112.267,157.817,116.608,160.429,114.707L160.429,114.707z"/>
	</g>
</g>
</svg>
